ply
format ascii 1.0
comment Created by Blender 2.82 (sub 7) - www.blender.org, source file: 'container.blend'
element vertex 48
property float x
property float y
property float z
property float nx
property float ny
property float nz
property uchar red
property uchar green
property uchar blue
property uchar alpha
element face 28
property list uchar uint vertex_indices
end_header
0.040063 0.074773 0.055318 1.000000 0.000000 -0.000000 208 255 244 255
0.040063 -0.075227 0.055318 1.000000 0.000000 -0.000000 186 249 255 255
0.040063 0.074773 0.000318 1.000000 0.000000 -0.000000 208 255 244 255
0.040063 -0.075227 0.000318 1.000000 -0.000000 0.000000 128 161 170 255
-0.039937 0.074773 0.055318 0.000000 1.000000 -0.000000 228 253 255 255
0.040063 0.074773 0.055318 0.000000 1.000000 -0.000000 239 253 255 255
-0.039937 0.074773 0.000318 0.000000 1.000000 -0.000000 228 253 255 255
0.040063 0.074773 0.000318 0.000000 1.000000 -0.000000 208 255 244 255
-0.039937 -0.075227 0.055318 -1.000000 -0.000000 0.000000 228 253 255 255
-0.039937 0.074773 0.055318 -1.000000 -0.000000 0.000000 228 253 255 255
-0.039937 -0.075227 0.000318 -1.000000 -0.000000 0.000000 228 253 255 255
-0.039937 0.074773 0.000318 -1.000000 -0.000000 0.000000 228 253 255 255
0.040063 -0.075227 0.055318 0.000000 -1.000000 0.000000 186 249 255 255
-0.039937 -0.075227 0.055318 0.000000 -1.000000 0.000000 185 243 255 255
0.040063 -0.075227 0.000318 0.000000 -1.000000 0.000000 228 253 255 255
-0.039937 -0.075227 0.000318 0.000000 -1.000000 0.000000 228 253 255 255
-0.039937 -0.075227 0.000318 0.000000 0.000000 -1.000000 228 253 255 255
-0.039937 0.074773 0.000318 0.000000 0.000000 -1.000000 228 253 255 255
0.040063 -0.075227 0.000318 0.000000 0.000000 -1.000000 228 253 255 255
0.040063 0.074773 0.000318 0.000000 0.000000 -1.000000 208 255 244 255
-0.037937 0.072773 0.055318 -0.000000 -0.000000 1.000000 228 253 255 255
-0.039937 0.074773 0.055318 -0.000000 -0.000000 1.000000 228 253 255 255
-0.037937 -0.073227 0.055318 -0.000000 -0.000000 1.000000 228 253 255 255
-0.039937 -0.075227 0.055318 0.000000 -0.000000 1.000000 228 253 255 255
0.038063 -0.073227 0.055318 0.000000 -0.000000 1.000000 227 253 255 255
0.040063 -0.075227 0.055318 0.000000 -0.000000 1.000000 226 253 255 255
0.038063 0.072773 0.055318 -0.000000 -0.000000 1.000000 208 255 244 255
0.040063 0.074773 0.055318 0.000000 -0.000000 1.000000 208 255 244 255
0.038063 0.072773 0.055318 0.000000 -1.000000 0.000000 208 255 244 255
-0.037937 0.072773 0.055318 0.000000 -1.000000 0.000000 180 245 255 255
0.038063 0.072773 0.005318 0.000000 -1.000000 0.000000 240 253 255 255
-0.037937 0.072773 0.005318 0.000000 -1.000000 0.000000 228 253 255 255
-0.037937 0.072773 0.055318 1.000000 0.000000 -0.000000 180 245 255 255
-0.037937 -0.073227 0.055318 1.000000 0.000000 -0.000000 176 241 255 255
-0.037937 0.072773 0.005318 1.000000 0.000000 -0.000000 79 57 63 255
-0.037937 -0.073227 0.005318 1.000000 -0.000000 0.000000 160 162 165 255
-0.037937 -0.073227 0.055318 0.000000 1.000000 -0.000000 228 253 255 255
0.038063 -0.073227 0.055318 0.000000 1.000000 -0.000000 227 253 255 255
-0.037937 -0.073227 0.005318 0.000000 1.000000 -0.000000 233 253 255 255
0.038063 -0.073227 0.005318 0.000000 1.000000 -0.000000 228 253 255 255
0.038063 -0.073227 0.055318 -1.000000 -0.000000 0.000000 227 253 255 255
0.038063 0.072773 0.055318 -1.000000 -0.000000 0.000000 228 253 255 255
0.038063 -0.073227 0.005318 -1.000000 -0.000000 0.000000 228 253 255 255
0.038063 0.072773 0.005318 -1.000000 -0.000000 0.000000 240 253 255 255
-0.037937 -0.073227 0.005318 0.000000 -0.000000 1.000000 233 253 255 255
0.038063 -0.073227 0.005318 0.000000 -0.000000 1.000000 228 253 255 255
-0.037937 0.072773 0.005318 0.000000 -0.000000 1.000000 228 253 255 255
0.038063 0.072773 0.005318 0.000000 -0.000000 1.000000 240 253 255 255
3 0 1 2
3 2 1 3
3 4 5 6
3 6 5 7
3 8 9 10
3 10 9 11
3 12 13 14
3 14 13 15
3 16 17 18
3 18 17 19
3 20 21 22
3 22 21 23
3 22 23 24
3 24 23 25
3 24 25 26
3 26 25 27
3 26 27 20
3 20 27 21
3 28 29 30
3 30 29 31
3 32 33 34
3 34 33 35
3 36 37 38
3 38 37 39
3 40 41 42
3 42 41 43
3 44 45 46
3 46 45 47
